# Blender v3.0.0 OBJ File: 'arena.blend'
# www.blender.org
mtllib arena.mtl
o Plane
v 0.000000 0.000000 0.000000
v 10.000000 0.000000 0.000000
v 0.000000 0.000000 -7.000000
v 10.000000 0.000000 -7.000000
v 0.000000 0.000000 -3.500000
v 5.000000 0.000000 0.000000
v 10.000000 0.000000 -3.500000
v 5.000000 0.000000 -7.000000
v 5.000000 0.000000 -3.500000
vt 0.500000 0.500000
vt 1.000000 0.500000
vt 1.000000 1.000000
vt 0.500000 1.000000
vt 0.000000 0.500000
vt 0.000000 1.000000
vt 0.000000 0.000000
vt 0.500000 0.000000
vt 1.000000 0.000000
vn 0.0000 1.0000 0.0000
usemtl Material
s off
f 9/1/1 7/2/1 4/3/1 8/4/1
f 5/5/1 9/1/1 8/4/1 3/6/1
f 1/7/1 6/8/1 9/1/1 5/5/1
f 6/8/1 2/9/1 7/2/1 9/1/1
o Cube_Cube.002
v 0.000000 0.000000 0.100000
v 0.000000 2.000000 0.100000
v 0.000000 0.000000 -0.100000
v 0.000000 2.000000 -0.100000
v 10.000000 0.000000 0.100000
v 10.000000 2.000000 0.100000
v 10.000000 0.000000 -0.100000
v 10.000000 2.000000 -0.100000
vt 0.375000 0.000000
vt 0.625000 0.000000
vt 0.625000 0.250000
vt 0.375000 0.250000
vt 0.625000 0.500000
vt 0.375000 0.500000
vt 0.625000 0.750000
vt 0.375000 0.750000
vt 0.625000 1.000000
vt 0.375000 1.000000
vt 0.125000 0.500000
vt 0.125000 0.750000
vt 0.875000 0.500000
vt 0.875000 0.750000
vn -1.0000 0.0000 0.0000
vn 0.0000 0.0000 -1.0000
vn 1.0000 0.0000 0.0000
vn 0.0000 0.0000 1.0000
vn 0.0000 -1.0000 0.0000
vn 0.0000 1.0000 0.0000
usemtl Material.002
s off
f 10/10/2 11/11/2 13/12/2 12/13/2
f 12/13/3 13/12/3 17/14/3 16/15/3
f 16/15/4 17/14/4 15/16/4 14/17/4
f 14/17/5 15/16/5 11/18/5 10/19/5
f 12/20/6 16/15/6 14/17/6 10/21/6
f 17/14/7 13/22/7 11/23/7 15/16/7
o Cube.001_Cube.003
v 0.000000 0.000000 -6.900000
v 0.000000 2.000000 -6.900000
v 0.000000 0.000000 -7.100000
v 0.000000 2.000000 -7.100000
v 10.000000 0.000000 -6.900000
v 10.000000 2.000000 -6.900000
v 10.000000 0.000000 -7.100000
v 10.000000 2.000000 -7.100000
vt 0.375000 0.000000
vt 0.625000 0.000000
vt 0.625000 0.250000
vt 0.375000 0.250000
vt 0.625000 0.500000
vt 0.375000 0.500000
vt 0.625000 0.750000
vt 0.375000 0.750000
vt 0.625000 1.000000
vt 0.375000 1.000000
vt 0.125000 0.500000
vt 0.125000 0.750000
vt 0.875000 0.500000
vt 0.875000 0.750000
vn -1.0000 0.0000 0.0000
vn 0.0000 0.0000 -1.0000
vn 1.0000 0.0000 0.0000
vn 0.0000 0.0000 1.0000
vn 0.0000 -1.0000 0.0000
vn 0.0000 1.0000 0.0000
usemtl Material.002
s off
f 18/24/8 19/25/8 21/26/8 20/27/8
f 20/27/9 21/26/9 25/28/9 24/29/9
f 24/29/10 25/28/10 23/30/10 22/31/10
f 22/31/11 23/30/11 19/32/11 18/33/11
f 20/34/12 24/29/12 22/31/12 18/35/12
f 25/28/13 21/36/13 19/37/13 23/30/13
o Cube.002_Cube.001
v -0.100000 0.000000 0.000000
v -0.100000 2.000000 0.000000
v -0.100000 0.000000 -7.000000
v -0.100000 2.000000 -7.000000
v 0.100000 0.000000 0.000000
v 0.100000 2.000000 0.000000
v 0.100000 0.000000 -7.000000
v 0.100000 2.000000 -7.000000
vt 0.375000 0.000000
vt 0.625000 0.000000
vt 0.625000 0.250000
vt 0.375000 0.250000
vt 0.625000 0.500000
vt 0.375000 0.500000
vt 0.625000 0.750000
vt 0.375000 0.750000
vt 0.625000 1.000000
vt 0.375000 1.000000
vt 0.125000 0.500000
vt 0.125000 0.750000
vt 0.875000 0.500000
vt 0.875000 0.750000
vn -1.0000 0.0000 0.0000
vn 0.0000 0.0000 -1.0000
vn 1.0000 0.0000 0.0000
vn 0.0000 0.0000 1.0000
vn 0.0000 -1.0000 0.0000
vn 0.0000 1.0000 0.0000
usemtl Material.003
s off
f 26/38/14 27/39/14 29/40/14 28/41/14
f 28/41/15 29/40/15 33/42/15 32/43/15
f 32/43/16 33/42/16 31/44/16 30/45/16
f 30/45/17 31/44/17 27/46/17 26/47/17
f 28/48/18 32/43/18 30/45/18 26/49/18
f 33/42/19 29/50/19 27/51/19 31/44/19
o Cube.003_Cube.004
v 9.900000 0.000000 0.000000
v 9.900000 2.000000 0.000000
v 9.900000 0.000000 -7.000000
v 9.900000 2.000000 -7.000000
v 10.100000 0.000000 0.000000
v 10.100000 2.000000 0.000000
v 10.100000 0.000000 -7.000000
v 10.100000 2.000000 -7.000000
vt 0.375000 0.000000
vt 0.625000 0.000000
vt 0.625000 0.250000
vt 0.375000 0.250000
vt 0.625000 0.500000
vt 0.375000 0.500000
vt 0.625000 0.750000
vt 0.375000 0.750000
vt 0.625000 1.000000
vt 0.375000 1.000000
vt 0.125000 0.500000
vt 0.125000 0.750000
vt 0.875000 0.500000
vt 0.875000 0.750000
vn -1.0000 0.0000 0.0000
vn 0.0000 0.0000 -1.0000
vn 1.0000 0.0000 0.0000
vn 0.0000 0.0000 1.0000
vn 0.0000 -1.0000 0.0000
vn 0.0000 1.0000 0.0000
usemtl Material.001
s off
f 34/52/20 35/53/20 37/54/20 36/55/20
f 36/55/21 37/54/21 41/56/21 40/57/21
f 40/57/22 41/56/22 39/58/22 38/59/22
f 38/59/23 39/58/23 35/60/23 34/61/23
f 36/62/24 40/57/24 38/59/24 34/63/24
f 41/56/25 37/64/25 35/65/25 39/58/25
